<svg width="32" height="32" viewBox="0 0 32 32" fill="none" xmlns="http://www.w3.org/2000/svg">
<g clip-path="url(#clip0_50_1034)">
<circle cx="16" cy="16" r="16" fill="white"/>
<g clip-path="url(#clip1_50_1034)">
<path d="M23.5833 10.5835H22.695L20.8533 5.5135C20.7009 5.09544 20.4239 4.7342 20.0597 4.4785C19.6955 4.22279 19.2617 4.08493 18.8167 4.0835H17.0833C16.4875 4.0835 16 4.571 16 5.16683C16 5.76266 16.4875 6.25016 17.0833 6.25016H18.8167L20.3983 10.5835H15.1875L14.7975 9.50016H14.895C15.4908 9.50016 15.9783 9.01266 15.9783 8.41683C15.9783 7.821 15.4908 7.3335 14.895 7.3335H11.6667C11.0708 7.3335 10.5833 7.821 10.5833 8.41683C10.5833 9.01266 11.0708 9.50016 11.6667 9.50016H12.4792L14.4508 14.9168H13.725C13.2483 12.501 11.2225 10.7135 8.6875 10.5943C5.65417 10.4427 3 12.9668 3 16.0002C3 19.0335 5.38333 21.4168 8.41667 21.4168C11.0817 21.4168 13.2375 19.586 13.725 17.0835H18.275C18.7517 19.4993 20.7775 21.2868 23.3125 21.406C26.3458 21.5468 29 19.0335 29 15.9893C29 12.9668 26.6167 10.5835 23.5833 10.5835ZM9.5 17.0835H11.4717C11.0167 18.416 9.73833 19.3368 8.2 19.2393C6.58583 19.1418 5.2425 17.7768 5.16667 16.1518C5.09083 14.256 6.5425 12.7502 8.41667 12.7502C9.8575 12.7502 11.0383 13.6493 11.4717 14.9168H9.5C8.90417 14.9168 8.41667 15.4043 8.41667 16.0002C8.41667 16.596 8.90417 17.0835 9.5 17.0835ZM18.275 14.9168H16.7583L15.9675 12.7502H19.25C18.7733 13.3785 18.4267 14.1043 18.275 14.9168ZM23.4533 19.2502C21.785 19.1852 20.3767 17.766 20.3333 16.0868C20.3117 15.0468 20.7558 14.1368 21.4708 13.5302L22.1425 15.3718C22.3483 15.9352 22.9658 16.2277 23.5292 16.0218C24.0925 15.816 24.385 15.1985 24.1792 14.6352L23.4967 12.761L23.5075 12.7502C23.9418 12.7354 24.3747 12.8087 24.7799 12.9658C25.1851 13.1229 25.5543 13.3605 25.8651 13.6643C26.1759 13.968 26.422 14.3316 26.5884 14.7331C26.7548 15.1346 26.8381 15.5656 26.8333 16.0002C26.8333 17.8635 25.3383 19.3152 23.4533 19.2502Z" fill="url(#paint0_linear_50_1034)" fill-opacity="0.976471"/>
</g>
</g>
<defs>
<linearGradient id="paint0_linear_50_1034" x1="16" y1="4.0835" x2="16" y2="21.4168" gradientUnits="userSpaceOnUse">
<stop stop-color="#FFB60D"/>
<stop offset="1" stop-color="#E59317"/>
</linearGradient>
<clipPath id="clip0_50_1034">
<rect width="32" height="32" fill="white"/>
</clipPath>
<clipPath id="clip1_50_1034">
<rect width="26" height="26" fill="white" transform="translate(3 3)"/>
</clipPath>
</defs>
</svg>
