<svg width="140" height="38" viewBox="0 0 140 38" fill="none" xmlns="http://www.w3.org/2000/svg">
<g clip-path="url(#clip0_15_20)">
<path d="M11.394 25.737V30.823C11.394 33.366 10.274 34.283 8.494 34.283C6.714 34.283 5.595 33.366 5.595 30.823V11.596C5.595 9.053 6.715 8.086 8.495 8.086C10.275 8.086 11.394 9.053 11.394 11.596V15.411H16.684V11.952C16.684 6.255 13.835 3 8.342 3C2.848 3 0 6.255 0 11.952V30.467C0 36.164 2.848 39.42 8.342 39.42C13.835 39.42 16.684 36.164 16.684 30.467V25.737H11.394ZM32.503 3.407L38.2 39.013H32.554L31.587 32.553H24.721L23.754 39.013H18.617L24.314 3.407H32.503ZM28.078 9.714L25.433 27.721H30.824L28.18 9.713H28.079L28.078 9.714ZM58.19 39.013H52.493C52.188 38.097 51.984 37.537 51.984 34.638V29.043C51.984 25.737 50.865 24.516 48.322 24.516H46.389V39.013H40.794V3.407H49.238C55.036 3.407 57.528 6.103 57.528 11.597V14.394C57.528 18.056 56.358 20.396 53.866 21.566C56.664 22.837 57.579 25.482 57.579 29.196V34.689C57.579 36.419 57.631 37.69 58.19 39.013ZM49.085 8.493H46.389V19.43H48.576C50.662 19.43 51.933 18.515 51.933 15.666V12.156C51.933 9.613 51.069 8.493 49.085 8.493ZM75.242 3.407L80.939 39.013H75.293L74.327 32.553H67.46L66.494 39.013H61.356L67.053 3.407H75.242ZM70.817 9.714L68.172 27.721H73.564L70.919 9.713H70.817V9.714ZM86.115 3.407H80.469L85.962 39.013H94.304L99.797 3.407H94.66L90.438 32.45H90.336L86.115 3.407ZM113.213 3.407L118.91 39.013H113.264L112.298 32.553H105.431L104.464 39.013H99.327L105.024 3.407H113.213ZM108.788 9.714L106.143 27.721H111.535L108.89 9.713H108.788V9.714ZM134.252 39.013H140V3.407H135.015V24.719H134.913L129.267 3.407H122.248V39.013H127.284V13.223H127.385L134.252 39.013Z" fill="#9C9C9C"/>
</g>
<defs>
<clipPath id="clip0_15_20">
<rect width="140" height="38" fill="white"/>
</clipPath>
</defs>
</svg>
