<svg width="152" height="39" viewBox="0 0 152 39" fill="none" xmlns="http://www.w3.org/2000/svg">
<g clip-path="url(#clip0_15_22)">
<path fill-rule="evenodd" clip-rule="evenodd" d="M23.024 15H25.741C28.549 15 30.066 18.292 28.237 20.425L25.577 23.525C25.8651 25.3636 26.836 27.0259 28.296 28.18C29.7574 29.3347 31.6 29.8967 33.457 29.754C35.3141 29.6113 37.0492 28.7744 38.317 27.41C39.5838 26.0461 40.2891 24.2544 40.292 22.393C40.2918 22.0692 40.3554 21.7485 40.4792 21.4493C40.6031 21.1501 40.7848 20.8783 41.0138 20.6494C41.2429 20.4205 41.5149 20.2391 41.8142 20.1154C42.1135 19.9918 42.4342 19.9285 42.758 19.929C43.4117 19.9293 44.0386 20.1889 44.5011 20.6508C44.9636 21.1127 45.224 21.7393 45.225 22.393C45.2248 24.9789 44.4103 27.4991 42.897 29.596C41.764 31.1628 40.2789 32.4416 38.5612 33.3295C36.8436 34.2173 34.9414 34.6894 33.008 34.7077C31.0745 34.726 29.1638 34.29 27.4297 33.4348C25.6956 32.5796 24.1865 31.3291 23.024 29.784C21.8616 31.3291 20.3525 32.5796 18.6184 33.4348C16.8842 34.29 14.9735 34.726 13.0401 34.7077C11.1066 34.6894 9.20446 34.2173 7.48682 33.3295C5.76919 32.4416 4.28405 31.1628 3.15102 29.596C1.63737 27.4992 0.822497 24.979 0.822022 22.393C0.821759 22.0691 0.885411 21.7483 1.00933 21.4491C1.13325 21.1498 1.31501 20.8779 1.54418 20.649C1.77336 20.4201 2.04545 20.2387 2.34486 20.1152C2.64427 19.9916 2.96512 19.9283 3.28902 19.929C3.94271 19.9293 4.56959 20.1889 5.0321 20.6508C5.49461 21.1127 5.75496 21.7393 5.75602 22.393C5.75325 24.2574 6.45555 26.0538 7.72202 27.422C8.66766 28.4434 9.88206 29.1776 11.2259 29.5402C12.5698 29.9029 13.9886 29.8794 15.3198 29.4725C16.6509 29.0655 17.8403 28.2916 18.7516 27.2394C19.6629 26.1873 20.2592 24.8996 20.472 23.524L17.81 20.424C15.982 18.292 17.498 15.001 20.31 15.001L23.024 15Z" fill="#9C9C9C"/>
<path d="M33.957 15.856C34.6046 15.8565 35.2459 15.7295 35.8444 15.4821C36.4429 15.2347 36.9867 14.8718 37.4449 14.4142C37.9031 13.9565 38.2666 13.4131 38.5148 12.8149C38.7629 12.2168 38.8907 11.5756 38.891 10.928C38.8907 10.2804 38.7629 9.63923 38.5148 9.04106C38.2666 8.4429 37.9031 7.89948 37.4449 7.44184C36.9867 6.98421 36.4429 6.62133 35.8444 6.37394C35.2459 6.12654 34.6046 5.99948 33.957 6C33.3095 5.99961 32.6683 6.12677 32.0699 6.37422C31.4716 6.62168 30.9278 6.98458 30.4697 7.4422C30.0116 7.89982 29.6482 8.44319 29.4001 9.04129C29.1521 9.63939 29.0243 10.2805 29.024 10.928C29.0243 11.5755 29.1521 12.2166 29.4001 12.8147C29.6482 13.4128 30.0116 13.9562 30.4697 14.4138C30.9278 14.8714 31.4716 15.2343 32.0699 15.4818C32.6683 15.7292 33.3095 15.8564 33.957 15.856ZM10.934 15.856C11.5815 15.8564 12.2227 15.7292 12.8211 15.4818C13.4194 15.2343 13.9632 14.8714 14.4213 14.4138C14.8794 13.9562 15.2428 13.4128 15.4909 12.8147C15.7389 12.2166 15.8667 11.5755 15.867 10.928C15.8667 10.2805 15.7389 9.63939 15.4909 9.04129C15.2428 8.44319 14.8794 7.89982 14.4213 7.4422C13.9632 6.98458 13.4194 6.62168 12.8211 6.37422C12.2227 6.12677 11.5815 5.99961 10.934 6C10.2864 5.99948 9.64507 6.12654 9.0466 6.37394C8.44814 6.62133 7.90428 6.98421 7.44608 7.44184C6.98789 7.89948 6.62435 8.4429 6.37623 9.04106C6.12811 9.63923 6.00026 10.2804 6 10.928C6.00026 11.5756 6.12811 12.2168 6.37623 12.8149C6.62435 13.4131 6.98789 13.9565 7.44608 14.4142C7.90428 14.8718 8.44814 15.2347 9.0466 15.4821C9.64507 15.7295 10.2864 15.8565 10.934 15.856ZM78.867 7.204C79.627 7.204 80.251 7.421 80.739 7.855C81.227 8.289 81.471 8.859 81.471 9.565V33.9C81.471 34.633 81.241 35.216 80.779 35.65C80.319 36.084 79.708 36.301 78.949 36.301C78.189 36.301 77.579 36.084 77.117 35.651C76.656 35.216 76.425 34.633 76.425 33.901V32.883C75.828 33.995 74.96 34.863 73.82 35.487C72.708 36.111 71.433 36.423 69.995 36.423C68.285 36.423 66.753 35.989 65.397 35.121C64.067 34.253 63.023 33.032 62.263 31.458C61.53 29.858 61.164 28.027 61.164 25.965C61.164 23.903 61.53 22.099 62.263 20.552C63.023 19.006 64.067 17.812 65.397 16.971C66.726 16.13 68.259 15.709 69.995 15.709C71.433 15.709 72.708 16.008 73.821 16.605C74.9055 17.1748 75.7972 18.0526 76.384 19.128V9.483C76.384 8.805 76.601 8.262 77.035 7.855C77.497 7.421 78.107 7.204 78.867 7.204ZM71.338 32.476C72.966 32.476 74.214 31.92 75.082 30.807C75.977 29.695 76.425 28.107 76.425 26.046C76.425 23.984 75.977 22.41 75.082 21.326C74.214 20.213 72.98 19.656 71.379 19.656C69.751 19.656 68.489 20.199 67.594 21.285C66.699 22.37 66.251 23.93 66.251 25.965C66.251 28.027 66.699 29.627 67.594 30.767C68.489 31.907 69.737 32.476 71.338 32.476ZM95.779 36.423C93.745 36.423 91.954 36.003 90.408 35.162C88.888 34.321 87.708 33.114 86.867 31.54C86.026 29.966 85.605 28.135 85.605 26.046C85.605 23.957 86.025 22.139 86.867 20.593C87.708 19.019 88.888 17.812 90.407 16.971C91.954 16.13 93.745 15.709 95.779 15.709C97.814 15.709 99.591 16.129 101.11 16.971C102.633 17.7877 103.869 19.0519 104.651 20.593C105.492 22.139 105.913 23.957 105.913 26.046C105.913 28.136 105.492 29.966 104.651 31.54C103.869 33.0811 102.633 34.3453 101.11 35.162C99.591 36.002 97.813 36.423 95.779 36.423ZM95.739 32.476C97.394 32.476 98.655 31.933 99.523 30.848C100.392 29.763 100.826 28.162 100.826 26.046C100.826 23.957 100.392 22.37 99.523 21.285C98.655 20.172 97.407 19.616 95.779 19.616C94.152 19.616 92.889 20.172 91.995 21.285C91.127 22.37 90.692 23.957 90.692 26.046C90.692 28.162 91.126 29.763 91.995 30.848C92.863 31.933 94.111 32.476 95.739 32.476ZM126.96 15.791C127.72 15.791 128.33 16.008 128.791 16.441C129.253 16.876 129.483 17.459 129.483 18.191V34.266C129.483 37.386 128.615 39.746 126.879 41.348C125.142 42.948 122.579 43.748 119.187 43.748C116.23 43.748 113.761 43.193 111.781 42.08C110.777 41.483 110.275 40.764 110.275 39.923C110.275 39.326 110.411 38.852 110.682 38.499C110.98 38.146 111.36 37.969 111.821 37.969C112.066 37.969 112.364 38.024 112.717 38.133C113.069 38.268 113.436 38.418 113.815 38.58C114.665 38.9415 115.534 39.254 116.42 39.516C117.207 39.733 118.102 39.842 119.106 39.842C122.66 39.842 124.437 38.106 124.437 34.632V32.028C123.84 33.141 122.972 34.008 121.833 34.633C120.693 35.23 119.391 35.528 117.926 35.528C116.189 35.528 114.643 35.121 113.286 34.308C111.957 33.466 110.913 32.3 110.153 30.808C109.393 29.315 109.013 27.593 109.013 25.639C109.013 23.686 109.38 21.963 110.112 20.471C110.872 18.951 111.93 17.785 113.286 16.971C114.643 16.13 116.189 15.709 117.926 15.709C119.391 15.709 120.693 16.021 121.833 16.645C122.943 17.2132 123.852 18.1081 124.437 19.209V18.151C124.437 17.446 124.668 16.876 125.129 16.441C125.59 16.008 126.201 15.791 126.96 15.791ZM119.269 31.581C120.897 31.581 122.158 31.051 123.053 29.994C123.976 28.935 124.437 27.484 124.437 25.639C124.437 23.767 123.976 22.302 123.053 21.244C122.158 20.186 120.897 19.657 119.269 19.657C117.668 19.657 116.406 20.186 115.484 21.244C114.562 22.302 114.1 23.767 114.1 25.639C114.1 27.484 114.562 28.935 115.484 29.994C116.406 31.052 117.668 31.581 119.269 31.581ZM141.955 36.423C138.998 36.423 136.611 35.84 134.793 34.673C133.925 34.158 133.491 33.425 133.491 32.476C133.491 31.933 133.64 31.499 133.938 31.174C134.237 30.821 134.603 30.644 135.037 30.644C135.498 30.644 136.136 30.862 136.95 31.296C137.818 31.703 138.605 32.015 139.31 32.232C140.043 32.449 140.965 32.557 142.077 32.557C143.217 32.557 144.099 32.367 144.723 31.987C145.374 31.607 145.699 31.079 145.699 30.4C145.699 29.94 145.564 29.573 145.292 29.302C145.048 29.03 144.587 28.786 143.909 28.569C143.257 28.325 142.254 28.054 140.897 27.755C138.483 27.267 136.746 26.575 135.688 25.68C134.657 24.785 134.142 23.55 134.142 21.977C134.142 20.783 134.494 19.711 135.2 18.761C135.905 17.785 136.868 17.039 138.089 16.523C139.337 15.981 140.748 15.709 142.321 15.709C143.461 15.709 144.56 15.859 145.618 16.157C146.627 16.4072 147.589 16.8192 148.467 17.377C149.335 17.92 149.769 18.639 149.769 19.535C149.769 20.077 149.62 20.539 149.321 20.918C149.023 21.271 148.656 21.448 148.222 21.448C147.924 21.448 147.625 21.393 147.327 21.285C146.97 21.1032 146.617 20.9132 146.269 20.715C145.482 20.308 144.804 20.01 144.234 19.82C143.664 19.603 142.959 19.494 142.118 19.494C141.114 19.494 140.314 19.698 139.717 20.104C139.147 20.511 138.862 21.068 138.862 21.773C138.862 22.451 139.161 22.967 139.758 23.319C140.355 23.672 141.508 24.025 143.217 24.378C145.035 24.758 146.459 25.191 147.49 25.68C148.521 26.168 149.253 26.779 149.687 27.511C150.149 28.244 150.379 29.18 150.379 30.319C150.379 32.164 149.606 33.643 148.06 34.755C146.54 35.867 144.505 36.423 141.955 36.423Z" fill="#9C9C9C"/>
</g>
<defs>
<clipPath id="clip0_15_22">
<rect width="152" height="39" fill="white"/>
</clipPath>
</defs>
</svg>
