<svg width="139" height="50" viewBox="0 0 139 50" fill="none" xmlns="http://www.w3.org/2000/svg">
<g clip-path="url(#clip0_15_5)">
<path d="M28.912 10.784L24.31 39.082H17.698L19.378 28.864H12.256L10.61 39.082H4L8.639 10.784H15.214L13.242 22.732H20.364L22.338 10.784H28.912ZM42.473 39.082L42.693 32.912H36.593L34.803 39.082H27.826L37.214 10.784H49.267L49.414 39.082H42.473ZM40.976 17.662L38.091 27.645H42.876L43.277 17.663L40.976 17.662ZM77.783 10.784L73.18 39.082H66.568L61.967 23.598L59.483 39.083H52.87L57.509 10.784H64.303L68.833 25.248L71.206 10.784H77.783ZM93.208 10.784C96.398 10.784 98.675 11.649 100.038 13.378C101.037 14.688 101.535 16.326 101.535 18.291C101.535 18.999 101.475 19.745 101.354 20.531L99.929 29.296C99.442 32.256 98.248 34.628 96.349 36.41C94.449 38.192 91.99 39.082 88.969 39.082H78.34L82.98 10.784H93.208ZM90.906 16.916H88.532L85.939 32.95H89.409C90.553 32.95 91.442 32.622 92.075 31.968C92.733 31.286 93.183 30.186 93.425 28.667L94.486 22.221C94.578 21.701 94.627 21.175 94.632 20.648C94.632 18.158 93.391 16.916 90.906 16.916ZM121.112 39.082H102.775L107.416 10.784H125.753L124.73 16.916H112.968L112.128 22.222H121.844L120.822 28.352H111.105L110.375 32.951H122.137L121.112 39.082ZM141.977 39.082H125.32L129.96 10.784H136.535L132.919 32.951H143L141.977 39.082ZM77.471 44.118H141.014L139.029 50H75.486L77.471 44.118ZM10.95 0H80.45L78.464 5.882H8.964L10.95 0Z" fill="#9C9C9C"/>
</g>
<defs>
<clipPath id="clip0_15_5">
<rect width="139" height="50" fill="white"/>
</clipPath>
</defs>
</svg>
