<svg width="148" height="36" viewBox="0 0 148 36" fill="none" xmlns="http://www.w3.org/2000/svg">
<g clip-path="url(#clip0_15_13)">
<path d="M48.624 38.52V3H39.648L20.88 30.408L17.712 26.424C23.376 25.56 26.544 20.568 26.544 15.24C26.544 10.152 23.76 5.88 20.016 4.248C18.144 3.432 15.36 3 11.664 3H0V38.52H8.688V27.048H8.784L16.992 38.52H26.16L29.28 33.384H39.552V38.52H48.624ZM8.688 20.856V10.968H12.144C15.552 10.968 17.856 12.696 17.856 15.768C17.856 19.032 15.696 20.856 12.096 20.856H8.688ZM39.552 26.184H33.6L39.456 16.344H39.552V26.184ZM85.03 38.52V3H76.342L76.726 25.464L62.902 3H55.078V38.52H63.766L63.526 16.824L77.158 38.52H85.03ZM111.228 38.52V30.552H100.188V24.456H110.892V16.488H100.188V10.968H111.228V3H91.5V38.52H111.228ZM147.29 38.52L134.762 20.712L146.522 3H137.018L126.986 18.984H126.89V3H117.818V38.52H126.89V23.16H126.986L136.682 38.52H147.29Z" fill="#9C9C9C"/>
</g>
<defs>
<clipPath id="clip0_15_13">
<rect width="148" height="36" fill="white"/>
</clipPath>
</defs>
</svg>
