<svg width="16" height="11" fill="none" xmlns="http://www.w3.org/2000/svg"><g clip-path="url(#a)"><path d="M14 .5H2C1.174.5.506 1.062.506 1.75L.5 9.25c0 .688.675 1.25 1.5 1.25h12c.825 0 1.5-.562 1.5-1.25v-7.5c0-.688-.675-1.25-1.5-1.25Zm-.3 2.656L8.398 5.92A.875.875 0 0 1 8 6.013a.875.875 0 0 1-.398-.094L2.3 3.156a.616.616 0 0 1-.19-.14.499.499 0 0 1-.11-.191.445.445 0 0 1-.011-.212.48.48 0 0 1 .089-.198.588.588 0 0 1 .175-.154.762.762 0 0 1 .722-.005L8 4.876l5.025-2.62a.762.762 0 0 1 .722.005c.07.041.13.093.175.154a.445.445 0 0 1 .078.41.5.5 0 0 1-.11.191.615.615 0 0 1-.19.14Z" fill="url(#b)" fill-opacity=".976"/></g><defs><linearGradient id="b" x1="8" y1=".5" x2="8" y2="10.5" gradientUnits="userSpaceOnUse"><stop stop-color="#FFD600"/><stop offset="1" stop-color="#E57711"/></linearGradient><clipPath id="a"><path fill="#fff" d="M0 0h16v11H0z"/></clipPath></defs></svg>