<svg width="32" height="32" fill="none" xmlns="http://www.w3.org/2000/svg"><path d="M15.998 10.667A5.332 5.332 0 0 0 10.665 16a5.332 5.332 0 0 0 5.333 5.333A5.332 5.332 0 0 0 21.331 16a5.332 5.332 0 0 0-5.333-5.333Zm11.92 4A11.992 11.992 0 0 0 17.331 4.08V2.667c0-.734-.6-1.334-1.333-1.334s-1.333.6-1.333 1.334V4.08A11.992 11.992 0 0 0 4.078 14.667H2.665c-.733 0-1.333.6-1.333 1.333s.6 1.333 1.333 1.333h1.413A11.992 11.992 0 0 0 14.665 27.92v1.413c0 .734.6 1.334 1.333 1.334.734 0 1.333-.6 1.333-1.334V27.92a11.992 11.992 0 0 0 10.587-10.587h1.413c.734 0 1.334-.6 1.334-1.333s-.6-1.333-1.334-1.333h-1.413Zm-11.92 10.666A9.327 9.327 0 0 1 6.665 16a9.326 9.326 0 0 1 9.333-9.333A9.326 9.326 0 0 1 25.331 16a9.327 9.327 0 0 1-9.333 9.333Z" fill="url(#a)" fill-opacity=".976"/><defs><linearGradient id="a" x1="15.998" y1="1.333" x2="15.998" y2="30.667" gradientUnits="userSpaceOnUse"><stop stop-color="#FFD600"/><stop offset="1" stop-color="#E57711"/></linearGradient></defs></svg>