<svg width="16" height="13" fill="none" xmlns="http://www.w3.org/2000/svg"><g clip-path="url(#a)"><path d="m14.003 8.352-2.117-.186a2.129 2.129 0 0 0-.737.062 1.787 1.787 0 0 0-.629.303l-1.534 1.18c-2.365-.926-4.288-2.405-5.491-4.224l1.541-1.186c.359-.275.534-.66.475-1.051L5.27 1.634c-.047-.312-.243-.6-.548-.81A1.98 1.98 0 0 0 3.61.5H2.17C1.228.5.445 1.103.503 1.827.945 7.3 6.636 11.672 13.745 12.012c.941.044 1.725-.558 1.725-1.283V9.621c.002-.313-.147-.616-.417-.85a1.855 1.855 0 0 0-1.05-.419Z" fill="url(#b)" fill-opacity=".976"/></g><defs><linearGradient id="b" x1="7.985" y1=".5" x2="7.985" y2="12.014" gradientUnits="userSpaceOnUse"><stop stop-color="#FFD600"/><stop offset="1" stop-color="#E57711"/></linearGradient><clipPath id="a"><path fill="#fff" d="M0 0h16v13H0z"/></clipPath></defs></svg>