<svg width="134" height="36" viewBox="0 0 134 36" fill="none" xmlns="http://www.w3.org/2000/svg">
<path d="M5.04 11.1944C5.688 10.2346 6.576 9.45468 7.704 8.85476C8.856 8.25484 10.164 7.95489 11.628 7.95489C13.332 7.95489 14.868 8.37483 16.236 9.21471C17.628 10.0546 18.72 11.2544 19.512 12.8142C20.328 14.35 20.736 16.1377 20.736 18.1775C20.736 20.2172 20.328 22.0289 19.512 23.6127C18.72 25.1725 17.628 26.3843 16.236 27.2482C14.868 28.1121 13.332 28.544 11.628 28.544C10.14 28.544 8.832 28.256 7.704 27.6801C6.6 27.0802 5.712 26.3123 5.04 25.3764V28.2201H0V1.58378H5.04V11.1944ZM15.588 18.1775C15.588 16.9776 15.336 15.9458 14.832 15.0819C14.352 14.194 13.704 13.5221 12.888 13.0662C12.1004 12.6113 11.2055 12.3753 10.296 12.3823C9.384 12.3823 8.52 12.6222 7.704 13.1022C6.912 13.5581 6.264 14.23 5.76 15.1179C5.28 16.0058 5.04 17.0496 5.04 18.2494C5.04 19.4493 5.28 20.4931 5.76 21.381C6.264 22.2689 6.912 22.9528 7.704 23.4327C8.52 23.8887 9.384 24.1166 10.296 24.1166C11.232 24.1166 12.096 23.8767 12.888 23.3967C13.704 22.9168 14.352 22.2329 14.832 21.345C15.336 20.4571 15.588 19.4013 15.588 18.1775ZM26.954 5.90317C26.066 5.90317 25.322 5.62721 24.722 5.07529C24.146 4.49937 23.858 3.79147 23.858 2.95159C23.858 2.1117 24.146 1.4158 24.722 0.863879C25.322 0.28796 26.066 0 26.954 0C27.842 0 28.574 0.28796 29.15 0.863879C29.75 1.4158 30.05 2.1117 30.05 2.95159C30.05 3.79147 29.75 4.49937 29.15 5.07529C28.574 5.62721 27.842 5.90317 26.954 5.90317ZM29.438 8.27884V28.2201H24.398V8.27884H29.438ZM46.226 28.2201L39.458 19.7252V28.2201H34.418V1.58378H39.458V16.7377L46.154 8.27884H52.706L43.922 18.2854L52.778 28.2201H46.226ZM53.145 18.2494C53.145 16.1857 53.565 14.386 54.405 12.8502C55.245 11.2904 56.409 10.0906 57.897 9.25071C59.385 8.38683 61.089 7.95489 63.009 7.95489C65.481 7.95489 67.521 8.5788 69.129 9.82662C70.761 11.0505 71.853 12.7782 72.405 15.0099H66.97C66.682 14.146 66.19 13.4741 65.494 12.9942C64.822 12.4903 63.982 12.2383 62.974 12.2383C61.534 12.2383 60.394 12.7662 59.554 13.8221C58.714 14.8539 58.294 16.3297 58.294 18.2494C58.294 20.1452 58.714 21.621 59.554 22.6768C60.394 23.7087 61.534 24.2246 62.974 24.2246C65.014 24.2246 66.346 23.3127 66.97 21.489H72.406C71.854 23.6487 70.762 25.3644 69.13 26.6363C67.498 27.9081 65.458 28.544 63.01 28.544C61.09 28.544 59.386 28.1241 57.898 27.2842C56.4218 26.4325 55.2125 25.186 54.406 23.6847C53.566 22.1249 53.145 20.3132 53.145 18.2494ZM80.138 11.3744C80.756 10.3481 81.6227 9.49387 82.658 8.89076C83.714 8.29084 84.914 7.99088 86.258 7.99088V13.2821H84.926C83.342 13.2821 82.142 13.6541 81.326 14.398C80.534 15.1419 80.138 16.4377 80.138 18.2854V28.2201H75.098V8.27884H80.138V11.3744ZM101.712 25.3764C101.16 26.2883 100.26 27.0562 99.012 27.6801C97.764 28.28 96.42 28.58 94.98 28.58C93.732 28.58 92.604 28.328 91.596 27.8241C90.588 27.3202 89.796 26.6243 89.22 25.7364C88.644 24.8485 88.356 23.8287 88.356 22.6768C88.356 20.8291 89.04 19.3173 90.408 18.1415C91.8 16.9656 93.876 16.3777 96.636 16.3777H101.712C101.664 15.1059 101.292 14.098 100.596 13.3541C99.924 12.5862 98.988 12.2023 97.788 12.2023C96.732 12.2023 95.856 12.4903 95.16 13.0662C94.464 13.6181 94.02 14.398 93.828 15.4058H88.788C89.028 13.966 89.544 12.6822 90.336 11.5544C91.1449 10.4085 92.2362 9.49097 93.504 8.89076C94.824 8.24285 96.3 7.91889 97.932 7.91889C99.612 7.91889 101.124 8.26684 102.468 8.96275C103.803 9.62755 104.916 10.6654 105.672 11.9503C106.44 13.2461 106.824 14.7699 106.824 16.5217V28.2201H101.712V25.3764ZM96.456 24.5126C97.296 24.5126 98.112 24.3326 98.904 23.9726C99.72 23.6127 100.392 23.0728 100.92 22.3529C101.448 21.633 101.712 20.7811 101.712 19.7972V19.6532H96.924C95.772 19.6532 94.908 19.8812 94.332 20.3372C93.78 20.7931 93.504 21.393 93.504 22.1369C93.504 22.8568 93.756 23.4327 94.26 23.8647C94.788 24.2966 95.52 24.5126 96.456 24.5126ZM117.453 12.4183V28.2201H112.341V12.4183H110.073V8.27884H112.341V7.27098C112.341 4.82333 113.037 3.02358 114.429 1.87174C115.821 0.719899 117.921 0.179975 120.729 0.251965V4.49937C119.505 4.47537 118.653 4.67935 118.173 5.11128C117.693 5.54322 117.453 6.32311 117.453 7.45096V8.27884H124.003V3.34753H129.079V8.27884H133.543V12.4183H129.079V22.0649C129.079 22.7368 129.235 23.2287 129.547 23.5407C129.883 23.8287 130.435 23.9726 131.203 23.9726H133.543V28.2201H130.375C126.127 28.2201 124.003 26.1563 124.003 22.0289V12.4183H117.453Z" fill="white"/>
</svg>
